<?xml version="1.0" standalone="no"?>
<!DOCTYPE svg PUBLIC "-//W3C//DTD SVG 20010904//EN"
 "http://www.w3.org/TR/2001/REC-SVG-20010904/DTD/svg10.dtd">
<svg version="1.0" xmlns="http://www.w3.org/2000/svg"
 width="700.000000pt" height="700.000000pt" viewBox="0 0 700.000000 700.000000"
 preserveAspectRatio="xMidYMid meet">
<metadata>
Created by potrace 1.14, written by Peter Selinger 2001-2017
</metadata>
<g transform="translate(0.000000,700.000000) scale(0.100000,-0.100000)"
fill="#000000" stroke="none">
<path d="M1169 6993 c0 -5 -1 -123 -2 -263 l-2 -255 -175 -2 c-283 -2 -356 -9
-443 -37 -100 -33 -158 -63 -232 -119 -139 -104 -227 -234 -281 -414 l-27 -88
-3 -2565 c-2 -1726 1 -2586 8 -2630 49 -311 315 -563 643 -610 45 -6 1052 -10
2865 -10 3056 1 2839 -3 2999 56 137 52 273 160 356 283 56 85 81 144 105 246
19 77 19 161 19 2640 -1 2795 3 2614 -58 2763 -96 232 -296 403 -542 462 -72
17 -118 20 -325 20 l-241 0 1 263 0 262 -389 0 -390 0 0 -260 0 -260 -1550 -2
c-936 -2 -1551 1 -1555 6 -3 6 -5 125 -5 265 l0 256 -387 0 c-214 0 -388 -3
-389 -7z m5052 -1981 c0 -9 1 -971 1 -2137 l1 -2120 -2722 -3 -2721 -2 -1 22
c-1 29 -1 4229 0 4245 1 10 588 12 2721 12 2551 0 2720 -1 2721 -17z"/>
<path d="M1558 4238 c-4 -11 -3 -739 1 -761 0 -4 875 -6 1944 -5 l1942 3 0
385 0 385 -1941 3 c-1549 2 -1943 0 -1946 -10z"/>
<path d="M1559 2690 c-1 -3 -2 -177 -3 -387 -1 -254 2 -383 9 -384 40 -4 2699
-3 2704 1 13 8 10 770 -3 771 -37 4 -2706 3 -2707 -1z"/>
</g>
</svg>
